#Comment line ignore any data following # character 
#Hierarchical Translation and Rotation (.htr) file 
[Header]	
#Header keywords are followed by a single value 
FileType HTR		#Single word string
DataType HTRS		#Translation followed by rotation and scale data
FileVersion 1		#integer
NumSegments 84		#integer
NumFrames 2		#integer
DataFrameRate 30		#integer, data frame rate in this file
EulerRotationOrder ZYX
CalibrationUnits mm
RotationUnits Degrees
GlobalAxisofGravity Y
BoneLengthAxis Y
ScaleFactor 1.00
[SegmentNames&Hierarchy]
#CHILD	PARENT
MASTER GLOBAL
root MASTER
chest root
L_mid_tent01 root
R_mid_tent01 root
spine01 root
Bip01_Neck chest
L_humerus chest
R_humerus chest
weapon_bone chest
Bip01_Head Bip01_Neck
eye_left_bone Bip01_Head
eye_right_bone Bip01_Head
L_forearm L_humerus
L_front_hand L_forearm
L_weapon_bone L_forearm
L_front_hand01_01 L_front_hand
L_front_hand02_01 L_front_hand
L_front_hand03_01 L_front_hand
L_front_hand01_02 L_front_hand01_01
L_front_hand02_02 L_front_hand02_01
L_front_hand03_02 L_front_hand03_01
R_forearm R_humerus
R_front_hand R_forearm
R_weapon_bone R_forearm
R_front_hand01_01 R_front_hand
R_front_hand02_01 R_front_hand
R_front_hand03_01 R_front_hand
R_front_hand01_02 R_front_hand01_01
R_front_hand02_02 R_front_hand02_01
R_front_hand03_02 R_front_hand03_01
null_rope01_connect L_mid_tent01
Rope1_Seg01 null_rope01_connect
Rope1_Seg02 Rope1_Seg01
Rope1_Seg03 Rope1_Seg02
Rope1_Seg04 Rope1_Seg03
Rope1_Seg05 Rope1_Seg04
Rope1_Seg06 Rope1_Seg05
Rope1_Seg07 Rope1_Seg06
Rope1_Seg09 Rope1_Seg07
L_mid_hand01 Rope1_Seg09
L_mid_hand02 Rope1_Seg09
L_mid_hand03 Rope1_Seg09
null_rope02_connect R_mid_tent01
Rope2_Seg01 null_rope02_connect
Rope2_Seg02 Rope2_Seg01
Rope2_Seg03 Rope2_Seg02
Rope2_Seg04 Rope2_Seg03
Rope2_Seg05 Rope2_Seg04
Rope2_Seg06 Rope2_Seg05
Rope2_Seg07 Rope2_Seg06
Rope2_Seg09 Rope2_Seg07
R_mid_hand01 Rope2_Seg09
R_mid_hand02 Rope2_Seg09
R_mid_hand03 Rope2_Seg09
spine02 spine01
spine03 spine02
pelvis spine03
null_rope03_connect pelvis
null_rope04_connect pelvis
Rope3_Seg01 null_rope03_connect
Rope3_Seg02 Rope3_Seg01
Rope3_Seg03 Rope3_Seg02
Rope3_Seg04 Rope3_Seg03
Rope3_Seg05 Rope3_Seg04
Rope3_Seg06 Rope3_Seg05
Rope3_Seg07 Rope3_Seg06
Rope3_Seg08 Rope3_Seg07
Rope3_Seg09 Rope3_Seg08
R_rear_hand01 Rope3_Seg09
R_rear_hand02 Rope3_Seg09
R_rear_hand03 Rope3_Seg09
Rope4_Seg01 null_rope04_connect
Rope4_Seg02 Rope4_Seg01
Rope4_Seg03 Rope4_Seg02
Rope4_Seg04 Rope4_Seg03
Rope4_Seg05 Rope4_Seg04
Rope4_Seg06 Rope4_Seg05
Rope4_Seg07 Rope4_Seg06
Rope4_Seg08 Rope4_Seg07
Rope4_Seg09 Rope4_Seg08
L_rear_hand01 Rope4_Seg09
L_rear_hand02 Rope4_Seg09
L_rear_hand03 Rope4_Seg09
[BasePosition]
#SegmentName Tx, Ty, Tz, Rx, Ry, Rz, BoneLength
MASTER 0.000000 0.000000 0.000000 -90.000000 0.000000 0.000000 10.000000 
root 0.000000 0.000000 0.000000 0.000000 0.000000 0.000000 10.000000 
chest 0.000000 0.000000 0.000000 0.000000 0.000000 0.000000 10.000000 
L_mid_tent01 0.000000 0.000000 0.000000 0.000000 0.000000 0.000000 10.000000 
R_mid_tent01 0.000000 0.000000 0.000000 0.000000 0.000000 0.000000 10.000000 
spine01 0.000000 0.000000 0.000000 0.000000 0.000000 0.000000 10.000000 
Bip01_Neck 0.000000 0.000000 0.000000 0.000000 0.000000 0.000000 10.000000 
L_humerus 0.000000 0.000000 0.000000 0.000000 0.000000 0.000000 10.000000 
R_humerus 0.000000 0.000000 0.000000 0.000000 0.000000 0.000000 10.000000 
weapon_bone 0.000000 0.000000 0.000000 0.000000 0.000000 0.000000 10.000000 
Bip01_Head 0.000000 0.000000 0.000000 0.000000 0.000000 0.000000 10.000000 
eye_left_bone 0.000000 0.000000 0.000000 0.000000 0.000000 0.000000 10.000000 
eye_right_bone 0.000000 0.000000 0.000000 0.000000 0.000000 0.000000 10.000000 
L_forearm 0.000000 0.000000 0.000000 0.000000 0.000000 0.000000 10.000000 
L_front_hand 0.000000 0.000000 0.000000 0.000000 0.000000 0.000000 10.000000 
L_weapon_bone 0.000000 0.000000 0.000000 0.000000 0.000000 0.000000 10.000000 
L_front_hand01_01 0.000000 0.000000 0.000000 0.000000 0.000000 0.000000 10.000000 
L_front_hand02_01 0.000000 0.000000 0.000000 0.000000 0.000000 0.000000 10.000000 
L_front_hand03_01 0.000000 0.000000 0.000000 0.000000 0.000000 0.000000 10.000000 
L_front_hand01_02 0.000000 0.000000 0.000000 0.000000 0.000000 0.000000 10.000000 
L_front_hand02_02 0.000000 0.000000 0.000000 0.000000 0.000000 0.000000 10.000000 
L_front_hand03_02 0.000000 0.000000 0.000000 0.000000 0.000000 0.000000 10.000000 
R_forearm 0.000000 0.000000 0.000000 0.000000 0.000000 0.000000 10.000000 
R_front_hand 0.000000 0.000000 0.000000 0.000000 0.000000 0.000000 10.000000 
R_weapon_bone 0.000000 0.000000 0.000000 0.000000 0.000000 0.000000 10.000000 
R_front_hand01_01 0.000000 0.000000 0.000000 0.000000 0.000000 0.000000 10.000000 
R_front_hand02_01 0.000000 0.000000 0.000000 0.000000 0.000000 0.000000 10.000000 
R_front_hand03_01 0.000000 0.000000 0.000000 0.000000 0.000000 0.000000 10.000000 
R_front_hand01_02 0.000000 0.000000 0.000000 0.000000 0.000000 0.000000 10.000000 
R_front_hand02_02 0.000000 0.000000 0.000000 0.000000 0.000000 0.000000 10.000000 
R_front_hand03_02 0.000000 0.000000 0.000000 0.000000 0.000000 0.000000 10.000000 
null_rope01_connect 0.000000 0.000000 0.000000 0.000000 0.000000 0.000000 10.000000 
Rope1_Seg01 0.000000 0.000000 0.000000 0.000000 0.000000 0.000000 10.000000 
Rope1_Seg02 0.000000 0.000000 0.000000 0.000000 0.000000 0.000000 10.000000 
Rope1_Seg03 0.000000 0.000000 0.000000 0.000000 0.000000 0.000000 10.000000 
Rope1_Seg04 0.000000 0.000000 0.000000 0.000000 0.000000 0.000000 10.000000 
Rope1_Seg05 0.000000 0.000000 0.000000 0.000000 0.000000 0.000000 10.000000 
Rope1_Seg06 0.000000 0.000000 0.000000 0.000000 0.000000 0.000000 10.000000 
Rope1_Seg07 0.000000 0.000000 0.000000 0.000000 0.000000 0.000000 10.000000 
Rope1_Seg09 0.000000 0.000000 0.000000 0.000000 0.000000 0.000000 10.000000 
L_mid_hand01 0.000000 0.000000 0.000000 0.000000 0.000000 0.000000 10.000000 
L_mid_hand02 0.000000 0.000000 0.000000 0.000000 0.000000 0.000000 10.000000 
L_mid_hand03 0.000000 0.000000 0.000000 0.000000 0.000000 0.000000 10.000000 
null_rope02_connect 0.000000 0.000000 0.000000 0.000000 0.000000 0.000000 10.000000 
Rope2_Seg01 0.000000 0.000000 0.000000 0.000000 0.000000 0.000000 10.000000 
Rope2_Seg02 0.000000 0.000000 0.000000 0.000000 0.000000 0.000000 10.000000 
Rope2_Seg03 0.000000 0.000000 0.000000 0.000000 0.000000 0.000000 10.000000 
Rope2_Seg04 0.000000 0.000000 0.000000 0.000000 0.000000 0.000000 10.000000 
Rope2_Seg05 0.000000 0.000000 0.000000 0.000000 0.000000 0.000000 10.000000 
Rope2_Seg06 0.000000 0.000000 0.000000 0.000000 0.000000 0.000000 10.000000 
Rope2_Seg07 0.000000 0.000000 0.000000 0.000000 0.000000 0.000000 10.000000 
Rope2_Seg09 0.000000 0.000000 0.000000 0.000000 0.000000 0.000000 10.000000 
R_mid_hand01 0.000000 0.000000 0.000000 0.000000 0.000000 0.000000 10.000000 
R_mid_hand02 0.000000 0.000000 0.000000 0.000000 0.000000 0.000000 10.000000 
R_mid_hand03 0.000000 0.000000 0.000000 0.000000 0.000000 0.000000 10.000000 
spine02 0.000000 0.000000 0.000000 0.000000 0.000000 0.000000 10.000000 
spine03 0.000000 0.000000 0.000000 0.000000 0.000000 0.000000 10.000000 
pelvis 0.000000 0.000000 0.000000 0.000000 0.000000 0.000000 10.000000 
null_rope03_connect 0.000000 0.000000 0.000000 0.000000 0.000000 0.000000 10.000000 
null_rope04_connect 0.000000 0.000000 0.000000 0.000000 0.000000 0.000000 10.000000 
Rope3_Seg01 0.000000 0.000000 0.000000 0.000000 0.000000 0.000000 10.000000 
Rope3_Seg02 0.000000 0.000000 0.000000 0.000000 0.000000 0.000000 10.000000 
Rope3_Seg03 0.000000 0.000000 0.000000 0.000000 0.000000 0.000000 10.000000 
Rope3_Seg04 0.000000 0.000000 0.000000 0.000000 0.000000 0.000000 10.000000 
Rope3_Seg05 0.000000 0.000000 0.000000 0.000000 0.000000 0.000000 10.000000 
Rope3_Seg06 0.000000 0.000000 0.000000 0.000000 0.000000 0.000000 10.000000 
Rope3_Seg07 0.000000 0.000000 0.000000 0.000000 0.000000 0.000000 10.000000 
Rope3_Seg08 0.000000 0.000000 0.000000 0.000000 0.000000 0.000000 10.000000 
Rope3_Seg09 0.000000 0.000000 0.000000 0.000000 0.000000 0.000000 10.000000 
R_rear_hand01 0.000000 0.000000 0.000000 0.000000 0.000000 0.000000 10.000000 
R_rear_hand02 0.000000 0.000000 0.000000 0.000000 0.000000 0.000000 10.000000 
R_rear_hand03 0.000000 0.000000 0.000000 0.000000 0.000000 0.000000 10.000000 
Rope4_Seg01 0.000000 0.000000 0.000000 0.000000 0.000000 0.000000 10.000000 
Rope4_Seg02 0.000000 0.000000 0.000000 0.000000 0.000000 0.000000 10.000000 
Rope4_Seg03 0.000000 0.000000 0.000000 0.000000 0.000000 0.000000 10.000000 
Rope4_Seg04 0.000000 0.000000 0.000000 0.000000 0.000000 0.000000 10.000000 
Rope4_Seg05 0.000000 0.000000 0.000000 0.000000 0.000000 0.000000 10.000000 
Rope4_Seg06 0.000000 0.000000 0.000000 0.000000 0.000000 0.000000 10.000000 
Rope4_Seg07 0.000000 0.000000 0.000000 0.000000 0.000000 0.000000 10.000000 
Rope4_Seg08 0.000000 0.000000 0.000000 0.000000 0.000000 0.000000 10.000000 
Rope4_Seg09 0.000000 0.000000 0.000000 0.000000 0.000000 0.000000 10.000000 
L_rear_hand01 0.000000 0.000000 0.000000 0.000000 0.000000 0.000000 10.000000 
L_rear_hand02 0.000000 0.000000 0.000000 0.000000 0.000000 0.000000 10.000000 
L_rear_hand03 0.000000 0.000000 0.000000 0.000000 0.000000 0.000000 10.000000 
#Beginning of Data. Separated by tabs
#Fr	Tx	Ty	Tz	Rx	Ry	Rz	SF
[MASTER]
18 -2751.927246 2565.552734 1515.048706 0.001660 0.001660 0.001660 4055.926270
19 -2749.539307 2564.963623 1515.276855 0.001660 0.001660 0.001660 4054.018799
[root]
18 20.013123 -118.897095 462.015350 -162.181091 -13.932978 -71.235977 477.488495
19 20.013123 -118.897095 462.015350 -162.745071 -13.771530 -71.154129 477.488495
[chest]
18 -84.512650 -34.090519 0.000000 -36.139812 -21.243517 178.370972 91.129311
19 -84.512650 -34.090519 0.000000 -37.554138 -22.092760 179.018631 91.129311
[L_mid_tent01]
18 27.299021 22.179060 -249.918732 -11.588774 14.581766 35.884956 252.381699
19 27.299017 22.179056 -249.918747 -11.396171 14.487795 36.496445 252.381714
[R_mid_tent01]
18 23.228794 24.509907 226.238495 176.771408 -17.160938 35.364708 228.744751
19 23.228794 24.509907 226.238495 177.045624 -17.635157 34.386742 228.744751
[spine01]
18 -0.361383 -0.195265 0.000000 0.001958 0.001295 23.021347 0.410763
19 -0.361383 -0.195265 0.000000 0.001958 0.001295 23.022610 0.410763
[Bip01_Neck]
18 165.484543 71.581718 0.000119 176.643677 -1.657967 43.431911 180.302734
19 165.484543 71.581718 0.000119 176.643677 -1.657967 43.431911 180.302734
[L_humerus]
18 -13.983130 -135.272980 -120.471481 172.304764 7.177808 -90.250702 181.680161
19 -13.983130 -135.272980 -120.471481 172.313736 -2.551454 -88.808502 181.680161
[R_humerus]
18 -13.983309 -135.273102 125.287651 -177.017899 -1.097117 -85.601974 184.909012
19 -13.983309 -135.273102 125.287651 -177.456238 6.409497 -83.917252 184.909012
[weapon_bone]
18 235.964890 -300.705902 0.000000 0.000000 -89.951546 -128.212341 382.234833
19 235.964890 -300.705902 0.000000 0.000000 -89.951546 -128.212341 382.234833
[Bip01_Head]
18 213.627014 185.207047 18.341978 -17.836910 -0.669480 -43.890129 283.327698
19 213.610107 185.254105 17.734753 -17.725019 -0.343868 -43.890751 283.307037
[eye_left_bone]
18 -24.626970 125.451866 -64.772606 0.000000 -90.000000 -99.840431 143.318359
19 -24.626970 125.451866 -64.772606 0.000000 -90.000000 -99.840431 143.318359
[eye_right_bone]
18 -24.626970 125.451866 64.327362 0.000000 -89.965736 80.156380 143.117676
19 -24.626970 125.451866 64.327362 0.000000 -89.965736 80.156380 143.117676
[L_forearm]
18 322.776093 0.000000 -0.000119 0.000147 -0.002343 -97.196091 322.776093
19 322.776093 0.000000 -0.000119 0.000152 -0.002342 -97.410362 322.776093
[L_front_hand]
18 241.149185 -0.042021 -3.300071 173.737335 -1.836966 -27.421978 241.171753
19 241.149185 -0.042021 -3.300071 174.201096 -1.835681 -27.423513 241.171753
[L_weapon_bone]
18 156.183838 0.000000 0.000000 0.000014 0.000007 0.000001 156.183838
19 156.183838 0.000000 0.000000 0.000014 0.000007 0.000001 156.183838
[L_front_hand01_01]
18 86.095154 20.947098 -0.655860 -0.229525 -0.556759 60.226772 88.609184
19 86.095154 20.947098 -0.655860 -0.199991 -0.565161 57.331680 88.609184
[L_front_hand02_01]
18 86.935165 -11.437475 24.513514 136.100342 -51.100185 -39.312286 91.046425
19 86.935165 -11.437475 24.513514 133.656082 -49.045864 -36.127136 91.046425
[L_front_hand03_01]
18 86.637497 -14.123976 -20.424902 -136.756821 49.366478 -41.571106 90.126129
19 86.637497 -14.123976 -20.424902 -134.426071 47.338192 -38.454964 90.126129
[L_front_hand01_02]
18 71.020905 -0.000179 0.000030 0.000299 -0.002328 -104.627602 71.020905
19 71.020905 -0.000179 0.000030 0.000253 -0.002334 -102.385681 71.020905
[L_front_hand02_02]
18 71.020927 -0.000119 0.000060 0.000299 -0.002328 -104.627602 71.020927
19 71.020927 -0.000119 0.000060 0.000253 -0.002334 -102.385681 71.020927
[L_front_hand03_02]
18 71.020905 -0.000060 0.000060 0.000299 -0.002328 -104.627602 71.020905
19 71.020905 -0.000060 0.000060 0.000253 -0.002334 -102.385681 71.020905
[R_forearm]
18 322.776428 -0.000060 0.000030 0.212652 0.018809 -95.737076 322.776428
19 322.776428 -0.000060 0.000030 0.212616 0.019211 -95.953789 322.776428
[R_front_hand]
18 238.847015 -0.006795 2.210259 -4.443078 -10.644699 -26.315355 238.857239
19 238.847015 -0.006795 2.210259 -4.561155 -10.642125 -26.315701 238.857239
[R_weapon_bone]
18 155.664093 0.002503 -0.000030 0.003487 0.001180 -90.988930 155.664078
19 155.664093 0.002503 -0.000030 0.003487 0.001180 -90.988930 155.664078
[R_front_hand01_01]
18 87.624611 14.231146 22.918642 -139.165222 -53.267765 43.295258 91.683487
19 87.624611 14.231146 22.918642 -141.083969 -54.436916 45.672497 91.683487
[R_front_hand02_01]
18 89.356956 14.367283 -19.491137 139.980438 51.699226 45.970741 92.579636
19 89.356956 14.367283 -19.491137 141.813004 52.852688 48.289940 92.579636
[R_front_hand03_01]
18 87.286232 -22.307278 -0.143439 0.071045 -0.448771 -63.677074 90.091743
19 87.286232 -22.307278 -0.143439 0.082367 -0.444902 -65.508446 90.091743
[R_front_hand01_02]
18 71.020905 0.000060 0.000119 0.002323 -0.000334 106.381714 71.020905
19 71.020905 0.000060 0.000119 0.002323 -0.000334 106.381714 71.020905
[R_front_hand02_02]
18 71.020844 -0.000030 -0.000119 0.002323 -0.000334 106.381714 71.020836
19 71.020844 -0.000030 -0.000119 0.002323 -0.000334 106.381714 71.020836
[R_front_hand03_02]
18 71.020905 0.000000 0.000030 0.002323 -0.000334 106.381714 71.020905
19 71.020905 0.000000 0.000030 0.002323 -0.000334 106.381714 71.020905
[null_rope01_connect]
18 328.732483 0.000000 -0.000238 -162.241791 -5.764704 -110.267662 328.732483
19 328.732483 0.000000 -0.000238 -162.412262 -5.317702 -110.689087 328.732483
[Rope1_Seg01]
18 -0.000012 -0.000026 0.000153 6.973662 -66.428993 105.903061 0.000155
19 -0.000012 -0.000026 0.000153 5.426222 -65.165817 107.790253 0.000155
[Rope1_Seg02]
18 139.999863 -0.000179 0.000000 0.517163 4.006729 1.578659 139.999863
19 139.999863 -0.000179 0.000000 0.469627 3.774740 1.585830 139.999863
[Rope1_Seg03]
18 139.999924 0.000060 -0.000060 0.697506 6.895801 2.664979 139.999924
19 139.999924 0.000060 -0.000060 0.646657 6.436125 2.658693 139.999924
[Rope1_Seg04]
18 139.999924 -0.000060 -0.000119 0.796681 18.660421 6.420923 139.999924
19 139.999924 -0.000060 -0.000119 0.886593 17.216093 6.401742 139.999924
[Rope1_Seg05]
18 139.999832 0.000119 -0.000060 -2.308285 36.217922 15.697017 139.999832
19 139.999832 0.000119 -0.000060 -1.197992 34.795647 16.061069 139.999832
[Rope1_Seg06]
18 139.999954 0.000119 -0.000060 -0.605196 -6.151151 8.138910 139.999954
19 139.999954 0.000119 -0.000060 -0.573247 -5.334950 7.748044 139.999954
[Rope1_Seg07]
18 139.999985 0.000060 0.000000 -0.376935 -0.913351 10.097398 139.999985
19 139.999985 0.000060 0.000000 -0.238256 0.512968 9.576810 139.999985
[Rope1_Seg09]
18 121.602913 0.000119 -0.000089 -89.793175 -1.359789 0.847147 121.602913
19 121.602913 0.000119 -0.000089 -89.793175 -1.359789 0.847147 121.602913
[L_mid_hand01]
18 103.859421 1.038730 8.195221 109.630608 -42.428215 -14.062108 104.187431
19 103.859421 1.038730 8.195221 110.331230 -44.470791 -15.085362 104.187431
[L_mid_hand02]
18 105.572853 -4.139662 -10.864139 -147.734787 32.524986 -39.820686 106.211075
19 105.572853 -4.139662 -10.864139 -148.937714 33.668667 -42.029247 106.211075
[L_mid_hand03]
18 104.641464 17.579376 -3.913581 -13.849794 12.791808 45.822674 106.179977
19 104.641464 17.579376 -3.913581 -13.360329 13.301841 47.989174 106.179977
[null_rope02_connect]
18 328.732849 0.000179 -0.000119 -11.451441 21.771420 98.356285 328.732849
19 328.732849 0.000179 -0.000119 -11.815868 21.264641 97.406281 328.732849
[Rope2_Seg01]
18 0.000050 0.000173 0.000047 100.994606 68.320160 40.777912 0.000187
19 0.000051 0.000177 0.000050 95.659683 68.275856 34.885689 0.000191
[Rope2_Seg02]
18 139.999741 -0.000060 -0.000119 1.212051 21.057924 -18.693632 139.999756
19 139.999741 -0.000060 -0.000119 0.229072 22.314238 -18.417311 139.999756
[Rope2_Seg03]
18 140.000107 0.000030 0.000000 7.727364 6.276268 -10.721716 140.000107
19 140.000107 0.000030 0.000000 8.865525 10.896385 -13.569753 140.000107
[Rope2_Seg04]
18 139.999802 0.000000 -0.000060 5.638112 7.767653 -7.448084 139.999802
19 139.999802 0.000000 -0.000060 9.075279 8.332163 -8.707976 139.999802
[Rope2_Seg05]
18 139.999985 -0.000060 0.000119 40.710354 19.351509 -14.910660 139.999985
19 139.999985 -0.000060 0.000119 59.260136 16.230700 -14.232435 139.999985
[Rope2_Seg06]
18 139.999893 -0.000030 -0.000119 106.798073 4.128877 -22.620239 139.999893
19 139.999893 -0.000030 -0.000119 84.240288 -3.753823 -19.482344 139.999893
[Rope2_Seg07]
18 139.999893 0.000060 -0.000060 5.164609 -11.324279 1.738092 139.999893
19 139.999893 0.000060 -0.000060 5.606056 -10.403543 1.256042 139.999893
[Rope2_Seg09]
18 121.338966 0.000089 -0.000060 33.793236 -1.359788 -0.847141 121.338966
19 121.338966 0.000089 -0.000060 33.793236 -1.359788 -0.847141 121.338966
[R_mid_hand01]
18 104.680779 11.144459 -10.335981 -35.659069 33.675755 40.429821 105.778534
19 104.680779 11.144459 -10.335981 -36.495327 32.739502 38.894321 105.778534
[R_mid_hand02]
18 104.070427 2.443552 8.231699 69.379761 -45.224773 15.491555 104.424065
19 104.070427 2.443552 8.231699 69.926315 -43.736977 14.713633 104.424065
[R_mid_hand03]
18 106.028137 -11.221827 -5.996406 -170.548004 12.734508 -50.222607 106.788818
19 106.028137 -11.221827 -5.996406 -170.196442 12.469418 -48.616356 106.788818
[spine02]
18 129.756927 0.001550 0.000119 -0.886476 -3.964451 4.764753 129.756927
19 129.756927 0.001550 0.000119 -0.866024 -3.969656 4.456994 129.756927
[spine03]
18 78.613998 0.081740 -4.898981 1.129748 4.122880 5.458694 78.766541
19 78.613991 0.081737 -4.898981 1.144371 4.118039 5.662328 78.766525
[pelvis]
18 169.435242 0.051022 0.000000 0.015336 -0.190616 -8.205335 169.435257
19 169.435242 0.051022 0.000000 0.009726 -0.191006 -7.798785 169.435257
[null_rope03_connect]
18 -1.257226 -2.466202 137.391083 -172.641632 -21.157969 -95.415764 137.418976
19 -1.257226 -2.466202 137.391083 -172.626358 -20.607615 -95.674446 137.418976
[null_rope04_connect]
18 -1.259640 -2.480268 -137.844437 -172.641632 -21.157969 -95.415764 137.872513
19 -1.259640 -2.480268 -137.844437 -172.626358 -20.607615 -95.674446 137.872513
[Rope3_Seg01]
18 0.000000 0.000000 0.000000 17.230654 4.879474 -46.910683 0.000000
19 0.000000 0.000000 0.000000 18.695873 7.349544 -47.820461 0.000000
[Rope3_Seg02]
18 139.999924 -0.000119 0.000060 7.975064 21.522514 -31.912844 139.999924
19 139.999924 -0.000119 0.000060 7.536372 18.808542 -30.934170 139.999924
[Rope3_Seg03]
18 139.999924 -0.000119 0.000119 -8.411141 17.919226 -46.785648 139.999924
19 139.999924 -0.000119 0.000119 -8.457843 16.273468 -46.854992 139.999924
[Rope3_Seg04]
18 139.999924 0.000119 0.000000 -4.695214 5.926959 -12.696836 139.999924
19 139.999924 0.000119 0.000000 -5.496184 6.024639 -13.760519 139.999924
[Rope3_Seg05]
18 139.999924 -0.000238 0.000060 -4.827069 4.182823 -10.994081 139.999924
19 139.999924 -0.000238 0.000060 -5.563885 4.491363 -11.219524 139.999924
[Rope3_Seg06]
18 139.999893 -0.000119 -0.000060 -15.684495 8.825189 -22.222580 139.999893
19 139.999893 -0.000119 -0.000060 -17.097223 9.641550 -21.858889 139.999893
[Rope3_Seg07]
18 139.999771 0.000060 -0.000119 -23.778708 14.404059 -20.210968 139.999771
19 139.999771 0.000060 -0.000119 -23.471167 15.133611 -18.748634 139.999771
[Rope3_Seg08]
18 139.999985 -0.000060 0.000000 -10.346539 9.801103 -6.047998 139.999985
19 139.999985 -0.000060 0.000000 -9.732051 9.877873 -5.381064 139.999985
[Rope3_Seg09]
18 90.185997 -0.000179 -0.000060 89.793228 -1.359877 -0.847183 90.185997
19 90.185997 -0.000179 -0.000060 89.793228 -1.359877 -0.847183 90.185997
[R_rear_hand01]
18 103.366196 -6.073594 -10.757982 -174.800964 -18.552784 -51.966663 104.101845
19 103.366196 -6.073594 -10.757982 -174.305573 -18.804945 -50.958954 104.101845
[R_rear_hand02]
18 100.509819 12.039542 -7.992327 -30.084064 25.665667 39.802113 101.543350
19 100.509819 12.039542 -7.992327 -30.611040 25.017698 38.577400 101.543350
[R_rear_hand03]
18 101.539970 5.215704 5.435467 82.244080 -42.772594 9.150355 101.819031
19 101.539970 5.215704 5.435467 82.396400 -41.501785 8.918382 101.819031
[Rope4_Seg01]
18 -0.000019 -0.000094 -0.000153 -63.041889 -1.619431 -24.202782 0.000180
19 -0.000019 -0.000100 -0.000153 -61.737171 -2.114878 -23.267365 0.000183
[Rope4_Seg02]
18 139.999985 0.000060 0.000119 -108.723099 -16.282072 -41.786201 139.999985
19 139.999985 0.000060 0.000119 -111.552971 -16.940325 -40.486603 139.999985
[Rope4_Seg03]
18 139.999924 0.000000 -0.000238 -4.215067 77.049736 7.709656 139.999924
19 139.999924 0.000000 -0.000238 2.684028 77.853111 15.494506 139.999924
[Rope4_Seg04]
18 139.999985 0.000000 0.000119 1.083362 9.302555 2.010292 139.999985
19 139.999985 0.000000 0.000119 1.100283 9.528886 2.222655 139.999985
[Rope4_Seg05]
18 139.999802 -0.000060 -0.000119 1.080885 5.739007 0.783811 139.999802
19 139.999802 -0.000060 -0.000119 1.173140 5.970923 0.810706 139.999802
[Rope4_Seg06]
18 139.999924 0.000000 0.000060 2.985233 10.343487 0.863065 139.999924
19 139.999924 0.000000 0.000060 3.556556 11.271580 0.815154 139.999924
[Rope4_Seg07]
18 139.999802 0.000000 0.000000 17.144634 24.741423 0.748712 139.999802
19 139.999802 0.000000 0.000000 17.959507 23.791212 0.254823 139.999802
[Rope4_Seg08]
18 139.999924 0.000000 0.000119 44.057571 19.640162 -5.406326 139.999924
19 139.999924 0.000000 0.000119 41.340004 17.994007 -5.574348 139.999924
[Rope4_Seg09]
18 90.185791 0.000060 0.000060 -135.617828 2.228885 0.850567 90.185791
19 90.185791 0.000060 0.000060 -135.617828 2.228885 0.850567 90.185791
[L_rear_hand01]
18 101.696655 -8.392275 -7.654577 -28.796078 -27.129276 137.298477 102.329041
19 101.696655 -8.392275 -7.654577 -27.588615 -28.361088 134.712082 102.329041
[L_rear_hand02]
18 102.726799 -1.568258 5.773216 81.840141 45.725391 170.277420 102.900848
19 102.726799 -1.568258 5.773216 81.431313 48.300438 169.720108 102.900848
[L_rear_hand03]
18 104.552910 9.721220 -10.420293 -166.442245 -20.805418 -134.771133 105.519653
19 104.552910 9.721220 -10.420293 -167.421646 -21.393103 -132.057709 105.519653
